# xmcd
#
# Track frame offsets: 
#        150
#        41870
#        66457
#        90481
#        111550
#        151838
#        174826
#        189109
#        212965
#        241876
#        274945
#
# Disc length: 4265 seconds
#
# Revision: 1
# Processed by: cddbd v1.5.2PL0 Copyright (c) Steve Scherf et al.
# Submitted via: ExactAudioCopyFreeDBPlugin 1.0
#
DISCID=9810a70b
DTITLE=Esbjörn Svensson Trio - e.s.t. live
DYEAR=1995
DGENRE=Jazz
TTITLE0=Say Hello To Mr. D (To Mr. S)
TTITLE1=The Rube Thing
TTITLE2=Happy Heads And Crazy Feds
TTITLE3=The Day After (Leaving)
TTITLE4=Like Wash It Or Something
TTITLE5=Breadbasket
TTITLE6=What Did You Buy Today
TTITLE7=Hymn Of The River Brown
TTITLE8=Same As Before
TTITLE9=Mr. and Mrs. Handkerchief
TTITLE10=Dodge The Dodo (Live In Montreux)
EXTD=YEAR: 1995
EXTT0=
EXTT1=
EXTT2=
EXTT3=
EXTT4=
EXTT5=
EXTT6=
EXTT7=
EXTT8=
EXTT9=
EXTT10=
PLAYORDER=
